<svg width="49" height="51" viewBox="0 0 49 51" fill="none" xmlns="http://www.w3.org/2000/svg">
<path fill-rule="evenodd" clip-rule="evenodd" d="M26.5029 3.17864C34.4331 -2.48613 39.8703 1.17448 45.4434 6.50701C51.0317 11.8542 47.247 18.3307 46.3132 26.0398C45.5347 32.4675 48.8628 39.474 43.8491 43.523C39.1331 47.3314 32.4857 44.4768 26.5029 45.3345C18.4631 46.487 9.78353 54.3855 3.40414 49.321C-2.89228 44.3223 1.30296 34.0676 2.19916 26.0398C2.94855 19.3272 3.17683 12.0769 8.07655 7.46802C12.8675 2.96147 18.9331 6.50701 26.5029 3.17864Z" fill="#FFC298"/>
<path d="M10.6683 41.3288C9.75163 41.3288 8.96718 41.0027 8.31496 40.3504C7.66274 39.6982 7.33607 38.9132 7.33496 37.9954V19.6621C7.33496 18.7454 7.66163 17.961 8.31496 17.3088C8.96829 16.6566 9.75274 16.3299 10.6683 16.3288H17.335V12.9954C17.335 12.0788 17.6616 11.2943 18.315 10.6421C18.9683 9.98989 19.7527 9.66322 20.6683 9.66211H27.335C28.2516 9.66211 29.0366 9.98878 29.69 10.6421C30.3433 11.2954 30.6694 12.0799 30.6683 12.9954V16.3288H37.335C38.2516 16.3288 39.0366 16.6554 39.69 17.3088C40.3433 17.9621 40.6694 18.7466 40.6683 19.6621V37.9954C40.6683 38.9121 40.3422 39.6971 39.69 40.3504C39.0377 41.0038 38.2527 41.3299 37.335 41.3288H10.6683ZM10.6683 37.9954H37.335V19.6621H10.6683V37.9954ZM20.6683 16.3288H27.335V12.9954H20.6683V16.3288Z" fill="#F4802F"/>
</svg>
