<svg width="1440" height="1006" viewBox="0 0 1440 1006" fill="none" xmlns="http://www.w3.org/2000/svg">
<path d="M83.9717 262V213.6H-33.2283V164.4L93.9717 4.39998H159.172V152.8H182.372V213.6H159.172V262H83.9717ZM39.1717 156H97.1717V86L39.1717 156ZM397.503 266C367.903 266 344.036 260.933 325.903 250.8C308.036 240.4 294.97 225.333 286.703 205.6C278.436 185.867 274.303 161.733 274.303 133.2C274.303 104.667 278.436 80.5333 286.703 60.8C294.97 41.0667 308.036 26.1333 325.903 16C344.036 5.59999 367.903 0.399982 397.503 0.399982C441.77 0.399982 473.37 11.8667 492.303 34.8C511.236 57.4667 520.703 90.2667 520.703 133.2C520.703 175.867 511.236 208.667 492.303 231.6C473.37 254.533 441.77 266 397.503 266ZM397.503 202C414.836 202 426.836 196.267 433.503 184.8C440.436 173.067 443.903 155.867 443.903 133.2C443.903 110.267 440.436 93.0667 433.503 81.6C426.836 70.1333 414.836 64.4 397.503 64.4C380.17 64.4 368.036 70.1333 361.103 81.6C354.436 93.0667 351.103 110.267 351.103 133.2C351.103 155.867 354.436 173.067 361.103 184.8C368.036 196.267 380.17 202 397.503 202ZM729.909 262V213.6H612.709V164.4L739.909 4.39998H805.109V152.8H828.309V213.6H805.109V262H729.909ZM685.109 156H743.109V86L685.109 156ZM1043.44 266C1013.84 266 989.974 260.933 971.84 250.8C953.974 240.4 940.907 225.333 932.64 205.6C924.374 185.867 920.24 161.733 920.24 133.2C920.24 104.667 924.374 80.5333 932.64 60.8C940.907 41.0667 953.974 26.1333 971.84 16C989.974 5.59999 1013.84 0.399982 1043.44 0.399982C1087.71 0.399982 1119.31 11.8667 1138.24 34.8C1157.17 57.4667 1166.64 90.2667 1166.64 133.2C1166.64 175.867 1157.17 208.667 1138.24 231.6C1119.31 254.533 1087.71 266 1043.44 266ZM1043.44 202C1060.77 202 1072.77 196.267 1079.44 184.8C1086.37 173.067 1089.84 155.867 1089.84 133.2C1089.84 110.267 1086.37 93.0667 1079.44 81.6C1072.77 70.1333 1060.77 64.4 1043.44 64.4C1026.11 64.4 1013.97 70.1333 1007.04 81.6C1000.37 93.0667 997.04 110.267 997.04 133.2C997.04 155.867 1000.37 173.067 1007.04 184.8C1013.97 196.267 1026.11 202 1043.44 202ZM1375.85 262V213.6H1258.65V164.4L1385.85 4.39998H1451.05V152.8H1474.25V213.6H1451.05V262H1375.85ZM1331.05 156H1389.05V86L1331.05 156Z" fill="#EEEEEE"/>
<path d="M83.9717 977.397V928.997H-33.2283V879.797L93.9717 719.797H159.172V868.197H182.372V928.997H159.172V977.397H83.9717ZM39.1717 871.397H97.1717V801.397L39.1717 871.397ZM397.503 981.397C367.903 981.397 344.036 976.33 325.903 966.197C308.036 955.797 294.97 940.73 286.703 920.997C278.436 901.264 274.303 877.13 274.303 848.597C274.303 820.064 278.436 795.93 286.703 776.197C294.97 756.464 308.036 741.53 325.903 731.397C344.036 720.997 367.903 715.797 397.503 715.797C441.77 715.797 473.37 727.264 492.303 750.197C511.236 772.864 520.703 805.664 520.703 848.597C520.703 891.264 511.236 924.064 492.303 946.997C473.37 969.93 441.77 981.397 397.503 981.397ZM397.503 917.397C414.836 917.397 426.836 911.664 433.503 900.197C440.436 888.464 443.903 871.264 443.903 848.597C443.903 825.664 440.436 808.464 433.503 796.997C426.836 785.53 414.836 779.797 397.503 779.797C380.17 779.797 368.036 785.53 361.103 796.997C354.436 808.464 351.103 825.664 351.103 848.597C351.103 871.264 354.436 888.464 361.103 900.197C368.036 911.664 380.17 917.397 397.503 917.397ZM729.909 977.397V928.997H612.709V879.797L739.909 719.797H805.109V868.197H828.309V928.997H805.109V977.397H729.909ZM685.109 871.397H743.109V801.397L685.109 871.397ZM1043.44 981.397C1013.84 981.397 989.974 976.33 971.84 966.197C953.974 955.797 940.907 940.73 932.64 920.997C924.374 901.264 920.24 877.13 920.24 848.597C920.24 820.064 924.374 795.93 932.64 776.197C940.907 756.464 953.974 741.53 971.84 731.397C989.974 720.997 1013.84 715.797 1043.44 715.797C1087.71 715.797 1119.31 727.264 1138.24 750.197C1157.17 772.864 1166.64 805.664 1166.64 848.597C1166.64 891.264 1157.17 924.064 1138.24 946.997C1119.31 969.93 1087.71 981.397 1043.44 981.397ZM1043.44 917.397C1060.77 917.397 1072.77 911.664 1079.44 900.197C1086.37 888.464 1089.84 871.264 1089.84 848.597C1089.84 825.664 1086.37 808.464 1079.44 796.997C1072.77 785.53 1060.77 779.797 1043.44 779.797C1026.11 779.797 1013.97 785.53 1007.04 796.997C1000.37 808.464 997.04 825.664 997.04 848.597C997.04 871.264 1000.37 888.464 1007.04 900.197C1013.97 911.664 1026.11 917.397 1043.44 917.397ZM1375.85 977.397V928.997H1258.65V879.797L1385.85 719.797H1451.05V868.197H1474.25V928.997H1451.05V977.397H1375.85ZM1331.05 871.397H1389.05V801.397L1331.05 871.397Z" fill="#EEEEEE"/>
<path d="M73.9784 623.698C44.3784 623.698 20.5118 618.632 2.37845 608.498C-15.4882 598.098 -28.5549 583.032 -36.8216 563.298C-45.0882 543.565 -49.2216 519.432 -49.2216 490.898C-49.2216 462.365 -45.0882 438.232 -36.8216 418.498C-28.5549 398.765 -15.4882 383.832 2.37845 373.698C20.5118 363.298 44.3784 358.098 73.9784 358.098C118.245 358.098 149.845 369.565 168.778 392.498C187.712 415.165 197.178 447.965 197.178 490.898C197.178 533.565 187.712 566.365 168.778 589.298C149.845 612.232 118.245 623.698 73.9784 623.698ZM73.9784 559.698C91.3118 559.698 103.312 553.965 109.978 542.498C116.912 530.765 120.378 513.565 120.378 490.898C120.378 467.965 116.912 450.765 109.978 439.298C103.312 427.832 91.3118 422.098 73.9784 422.098C56.6451 422.098 44.5118 427.832 37.5784 439.298C30.9118 450.765 27.5784 467.965 27.5784 490.898C27.5784 513.565 30.9118 530.765 37.5784 542.498C44.5118 553.965 56.6451 559.698 73.9784 559.698ZM406.385 619.698V571.298H289.185V522.098L416.385 362.098H481.585V510.498H504.785V571.298H481.585V619.698H406.385ZM361.585 513.698H419.585V443.698L361.585 513.698ZM719.916 623.698C690.316 623.698 666.449 618.632 648.316 608.498C630.449 598.098 617.383 583.032 609.116 563.298C600.849 543.565 596.716 519.432 596.716 490.898C596.716 462.365 600.849 438.232 609.116 418.498C617.383 398.765 630.449 383.832 648.316 373.698C666.449 363.298 690.316 358.098 719.916 358.098C764.183 358.098 795.783 369.565 814.716 392.498C833.649 415.165 843.116 447.965 843.116 490.898C843.116 533.565 833.649 566.365 814.716 589.298C795.783 612.232 764.183 623.698 719.916 623.698ZM719.916 559.698C737.249 559.698 749.249 553.965 755.916 542.498C762.849 530.765 766.316 513.565 766.316 490.898C766.316 467.965 762.849 450.765 755.916 439.298C749.249 427.832 737.249 422.098 719.916 422.098C702.583 422.098 690.449 427.832 683.516 439.298C676.849 450.765 673.516 467.965 673.516 490.898C673.516 513.565 676.849 530.765 683.516 542.498C690.449 553.965 702.583 559.698 719.916 559.698ZM1052.32 619.698V571.298H935.122V522.098L1062.32 362.098H1127.52V510.498H1150.72V571.298H1127.52V619.698H1052.32ZM1007.52 513.698H1065.52V443.698L1007.52 513.698ZM1365.85 623.698C1336.25 623.698 1312.39 618.632 1294.25 608.498C1276.39 598.098 1263.32 583.032 1255.05 563.298C1246.79 543.565 1242.65 519.432 1242.65 490.898C1242.65 462.365 1246.79 438.232 1255.05 418.498C1263.32 398.765 1276.39 383.832 1294.25 373.698C1312.39 363.298 1336.25 358.098 1365.85 358.098C1410.12 358.098 1441.72 369.565 1460.65 392.498C1479.59 415.165 1489.05 447.965 1489.05 490.898C1489.05 533.565 1479.59 566.365 1460.65 589.298C1441.72 612.232 1410.12 623.698 1365.85 623.698ZM1365.85 559.698C1383.19 559.698 1395.19 553.965 1401.85 542.498C1408.79 530.765 1412.25 513.565 1412.25 490.898C1412.25 467.965 1408.79 450.765 1401.85 439.298C1395.19 427.832 1383.19 422.098 1365.85 422.098C1348.52 422.098 1336.39 427.832 1329.45 439.298C1322.79 450.765 1319.45 467.965 1319.45 490.898C1319.45 513.565 1322.79 530.765 1329.45 542.498C1336.39 553.965 1348.52 559.698 1365.85 559.698Z" fill="#EEEEEE"/>
</svg>
