<svg width="45" height="40" viewBox="0 0 45 40" fill="none" xmlns="http://www.w3.org/2000/svg">
<path d="M16.0284 10.6147C12.4164 16.9225 8.95484 23.2302 5.34281 29.5379C5.1923 29.384 5.0418 29.2302 5.0418 29.0763C3.38629 26.3071 1.88127 23.5379 0.225752 20.6148C-0.0752508 20.1532 -0.0752508 19.6917 0.225752 19.2302C1.73077 16.6148 3.23578 13.9994 4.5903 11.384C4.8913 10.7686 5.34281 10.6147 6.09531 10.6147C9.10534 10.6147 12.1154 10.6147 15.1254 10.6147C15.4264 10.6147 15.5769 10.6147 16.0284 10.6147Z" fill="#1A1A1A"/>
<path d="M39.6572 10.4619C39.8077 10.7696 39.9582 10.9235 40.1087 11.0773C41.6137 13.8465 43.1187 16.4619 44.7742 19.2312C45.0752 19.8466 45.0752 20.3081 44.7742 20.7696C43.2692 23.385 41.7642 26.0004 40.4097 28.6158C40.1087 29.0774 39.8077 29.385 39.3562 29.385C36.1957 29.385 32.8846 29.385 29.7241 29.385C29.5736 29.385 29.5736 29.385 29.2726 29.385C32.4331 23.0773 36.0452 16.7696 39.6572 10.4619Z" fill="#1A1A1A"/>
<path d="M17.8344 30.4619C24.908 30.4619 31.9816 30.4619 39.0551 30.4619C38.6036 31.385 38.1521 32.1542 37.5501 33.0773C36.3461 35.0773 35.1421 37.2312 34.0886 39.2312C33.7876 39.6927 33.4866 39.8466 33.0351 39.8466C30.025 39.8466 26.8645 39.8466 23.8545 39.8466C23.403 39.8466 22.9515 39.6927 22.801 39.2312C21.2959 36.4619 19.6404 33.6927 18.1354 30.9235C17.9849 30.9235 17.9849 30.7696 17.8344 30.4619Z" fill="#1A1A1A"/>
<path d="M22.9515 0C23.2525 0 23.403 0 23.704 0C26.714 0 29.7241 0 32.7341 0C33.3361 0 33.7876 0.307693 34.0886 0.769233C35.5936 3.38463 36.9482 6.00002 38.4532 8.61541C38.7542 9.07695 38.7542 9.53849 38.4532 10C36.7977 12.9231 35.1421 15.8462 33.6371 18.6154C33.6371 18.6154 33.6371 18.6154 33.4866 18.7693C30.0251 12.6154 26.5635 6.30771 22.9515 0Z" fill="#1A1A1A"/>
<path d="M5.94479 9.38465C6.0953 9.07695 6.09529 8.92311 6.2458 8.76926C7.75081 6.15387 9.25583 3.38463 10.7608 0.769233C11.0618 0.153847 11.5134 0 12.1154 0C14.9749 0 17.9849 0 20.8445 0C21.4465 0 21.898 0.153847 22.199 0.769233C23.8545 3.69232 25.51 6.46156 27.1655 9.53849C20.0919 9.38465 13.0184 9.38465 5.94479 9.38465Z" fill="#1A1A1A"/>
<path d="M21.8979 39.9998C21.4464 39.9998 21.1454 39.9998 20.6939 39.9998C17.6839 39.9998 14.8243 39.9998 11.8143 39.9998C11.3628 39.9998 10.9113 39.846 10.7608 39.3844C9.25577 36.7691 7.75076 34.1537 6.24574 31.3844C5.94474 30.9229 5.94474 30.4613 6.24574 29.846C7.75076 27.0767 9.25577 24.3075 10.9113 21.5382C11.0618 21.3844 11.0618 21.2305 11.2123 20.9229C14.8243 27.3844 18.2859 33.5383 21.8979 39.9998Z" fill="#1A1A1A"/>
</svg>
