<svg width="52" height="56" viewBox="0 0 52 56" fill="none" xmlns="http://www.w3.org/2000/svg">
<path fill-rule="evenodd" clip-rule="evenodd" d="M3.95582 29.7606C5.13919 23.8347 3.87149 13.4091 7.58333 8.61539C12.0783 2.81033 19.6125 0.166442 26.9979 0.00268437C34.4214 -0.16192 39.2358 7.28858 43.9763 12.948C48.1235 17.8991 51.5482 23.3387 51.924 29.7606C52.3239 36.5938 51.2554 44.1212 46.0654 48.6419C41.0489 53.0116 33.632 50.6884 26.9979 51.4727C18.6203 52.4632 8.87209 59.5212 2.76 53.7619C-3.33188 48.0216 2.32454 37.9295 3.95582 29.7606Z" fill="#FFC298"/>
<path d="M39.3317 19.6671V43.0004C39.3317 43.4424 39.1561 43.8664 38.8435 44.1789C38.531 44.4915 38.1071 44.6671 37.665 44.6671H14.3317C13.8897 44.6671 13.4658 44.4915 13.1532 44.1789C12.8406 43.8664 12.665 43.4424 12.665 43.0004V13.0004C12.665 12.5584 12.8406 12.1345 13.1532 11.8219C13.4658 11.5093 13.8897 11.3337 14.3317 11.3337H30.9984M39.3317 19.6671H30.9984V11.3337M39.3317 19.6671L30.9984 11.3337" stroke="#446E8A" stroke-width="3.33333" stroke-linecap="round" stroke-linejoin="round"/>
<path d="M24.332 34.667C27.0935 34.667 29.332 32.4284 29.332 29.667C29.332 26.9056 27.0935 24.667 24.332 24.667C21.5706 24.667 19.332 26.9056 19.332 29.667C19.332 32.4284 21.5706 34.667 24.332 34.667Z" stroke="#446E8A" stroke-width="3.33333"/>
<path d="M28.5 33.0005L32.6667 36.3338" stroke="#446E8A" stroke-width="3.33333" stroke-linecap="round" stroke-linejoin="round"/>
</svg>
