<svg width="49" height="51" viewBox="0 0 49 51" fill="none" xmlns="http://www.w3.org/2000/svg">
<path fill-rule="evenodd" clip-rule="evenodd" d="M26.5029 3.17864C34.4331 -2.48613 39.8703 1.17448 45.4434 6.50701C51.0317 11.8542 47.247 18.3307 46.3132 26.0398C45.5347 32.4675 48.8628 39.474 43.8491 43.523C39.1331 47.3314 32.4857 44.4768 26.5029 45.3345C18.4631 46.487 9.78353 54.3855 3.40414 49.321C-2.89228 44.3223 1.30296 34.0676 2.19916 26.0398C2.94855 19.3272 3.17683 12.0769 8.07655 7.46802C12.8675 2.96147 18.9331 6.50701 26.5029 3.17864Z" fill="#FFC298"/>
<path d="M10.6683 41.329C9.75163 41.329 8.96718 41.0029 8.31496 40.3507C7.66274 39.6985 7.33607 38.9135 7.33496 37.9957V19.6624C7.33496 18.7457 7.66163 17.9612 8.31496 17.309C8.96829 16.6568 9.75274 16.3301 10.6683 16.329H17.335V12.9957C17.335 12.079 17.6616 11.2946 18.315 10.6424C18.9683 9.99013 19.7527 9.66346 20.6683 9.66235H27.335C28.2516 9.66235 29.0366 9.98902 29.69 10.6424C30.3433 11.2957 30.6694 12.0801 30.6683 12.9957V16.329H37.335C38.2516 16.329 39.0366 16.6557 39.69 17.309C40.3433 17.9624 40.6694 18.7468 40.6683 19.6624V37.9957C40.6683 38.9124 40.3422 39.6974 39.69 40.3507C39.0377 41.004 38.2527 41.3301 37.335 41.329H10.6683ZM10.6683 37.9957H37.335V19.6624H10.6683V37.9957ZM20.6683 16.329H27.335V12.9957H20.6683V16.329Z" fill="#446E8A"/>
</svg>
