<svg width="54" height="48" viewBox="0 0 54 48" fill="none" xmlns="http://www.w3.org/2000/svg">
<path fill-rule="evenodd" clip-rule="evenodd" d="M24.8608 0.0242002C31.7442 0.208249 38.348 2.30369 43.5279 6.84776C49.101 11.7368 54.5753 18.1501 53.9513 25.5439C53.3488 32.6823 46.6523 37.4793 40.618 41.3256C35.9416 44.3064 30.3523 43.3307 24.8608 44.0865C17.6857 45.0741 9.84883 50.7438 4.08303 46.354C-1.73319 41.9258 0.309585 32.8585 0.505689 25.5439C0.69391 18.5233 0.324473 10.899 5.16968 5.82215C10.084 0.672875 17.7512 -0.165896 24.8608 0.0242002Z" fill="#FFC298"/>
<path d="M29.5003 14.833L36.167 21.4997M13.667 37.333H20.3337L37.8337 19.833C38.2714 19.3953 38.6186 18.8756 38.8555 18.3037C39.0924 17.7317 39.2144 17.1187 39.2144 16.4997C39.2144 15.8806 39.0924 15.2676 38.8555 14.6957C38.6186 14.1238 38.2714 13.6041 37.8337 13.1664C37.3959 12.7286 36.8762 12.3814 36.3043 12.1445C35.7324 11.9076 35.1194 11.7856 34.5003 11.7856C33.8813 11.7856 33.2683 11.9076 32.6963 12.1445C32.1244 12.3814 31.6047 12.7286 31.167 13.1664L13.667 30.6664V37.333Z" stroke="#446E8A" stroke-width="3.33333" stroke-linecap="round" stroke-linejoin="round"/>
</svg>
