<svg width="51" height="49" viewBox="0 0 51 49" fill="none" xmlns="http://www.w3.org/2000/svg">
<path fill-rule="evenodd" clip-rule="evenodd" d="M2.84954 22.4971C-2.81523 14.5669 0.845377 9.1297 6.1779 3.55664C11.5251 -2.03172 18.0016 1.75305 25.7107 2.68677C32.1384 3.46527 39.1449 0.137186 43.1939 5.15095C47.0023 9.8669 44.1477 16.5143 45.0054 22.4971C46.1579 30.5369 54.0564 39.2165 48.9919 45.5959C43.9932 51.8923 33.7385 47.697 25.7107 46.8008C18.9981 46.0514 11.7478 45.8232 7.13891 40.9234C2.63237 36.1325 6.1779 30.0669 2.84954 22.4971Z" fill="#FFC298"/>
<path d="M17.5479 8C16.3875 8 15.2747 8.46094 14.4543 9.28141C13.6338 10.1019 13.1729 11.2147 13.1729 12.375V23H15.6729V12.375C15.6729 11.8777 15.8704 11.4008 16.222 11.0492C16.5737 10.6975 17.0506 10.5 17.5479 10.5H31.2979C31.7951 10.5 32.272 10.6975 32.6237 11.0492C32.9753 11.4008 33.1729 11.8777 33.1729 12.375V36.75C33.1729 37.1783 33.1312 37.595 33.0478 38H36.9229C38.5805 38 40.1702 37.3415 41.3423 36.1694C42.5144 34.9973 43.1729 33.4076 43.1729 31.75V28H35.6729V12.375C35.6729 11.2147 35.2119 10.1019 34.3914 9.28141C33.571 8.46094 32.4582 8 31.2979 8H17.5479ZM26.9229 23C27.7729 23 28.5879 23.17 29.3279 23.48C29.4069 23.29 29.4378 23.0834 29.4178 22.8786C29.3978 22.6738 29.3275 22.4771 29.2133 22.3059C29.099 22.1348 28.9443 21.9945 28.7628 21.8975C28.5813 21.8005 28.3786 21.7499 28.1729 21.75H20.6729C20.3413 21.75 20.0234 21.8817 19.789 22.1161C19.5545 22.3505 19.4229 22.6685 19.4229 23H26.9229ZM35.6729 30.5H40.6729V31.75C40.6729 32.7446 40.2778 33.6984 39.5745 34.4016C38.8712 35.1049 37.9174 35.5 36.9229 35.5H35.6729V30.5ZM19.4229 16.75C19.4229 16.4185 19.5545 16.1005 19.789 15.8661C20.0234 15.6317 20.3413 15.5 20.6729 15.5H28.1729C28.5044 15.5 28.8223 15.6317 29.0567 15.8661C29.2912 16.1005 29.4229 16.4185 29.4229 16.75C29.4229 17.0815 29.2912 17.3995 29.0567 17.6339C28.8223 17.8683 28.5044 18 28.1729 18H20.6729C20.3413 18 20.0234 17.8683 19.789 17.6339C19.5545 17.3995 19.4229 17.0815 19.4229 16.75ZM30.6729 29.25C30.6729 28.2554 30.2778 27.3016 29.5745 26.5983C28.8712 25.8951 27.9174 25.5 26.9229 25.5H11.9229C10.9283 25.5 9.97446 25.8951 9.2712 26.5983C8.56794 27.3016 8.17285 28.2554 8.17285 29.25V36.75C8.17285 37.7446 8.56794 38.6984 9.2712 39.4016C9.97446 40.1049 10.9283 40.5 11.9229 40.5H26.9229C27.9174 40.5 28.8712 40.1049 29.5745 39.4016C30.2778 38.6984 30.6729 37.7446 30.6729 36.75V29.25ZM28.1729 34.25V36.75C27.8413 36.75 27.5234 36.8817 27.289 37.1161C27.0545 37.3505 26.9229 37.6685 26.9229 38H24.4229C24.4229 37.0054 24.8179 36.0516 25.5212 35.3483C26.2245 34.6451 27.1783 34.25 28.1729 34.25ZM26.9229 28C26.9229 28.3315 27.0545 28.6495 27.289 28.8839C27.5234 29.1183 27.8413 29.25 28.1729 29.25V31.75C27.1783 31.75 26.2245 31.3549 25.5212 30.6516C24.8179 29.9484 24.4229 28.9946 24.4229 28H26.9229ZM10.6729 29.25C11.0044 29.25 11.3223 29.1183 11.5567 28.8839C11.7912 28.6495 11.9229 28.3315 11.9229 28H14.4229C14.4229 28.9946 14.0278 29.9484 13.3245 30.6516C12.6212 31.3549 11.6674 31.75 10.6729 31.75V29.25ZM11.9229 38C11.9229 37.6685 11.7912 37.3505 11.5567 37.1161C11.3223 36.8817 11.0044 36.75 10.6729 36.75V34.25C11.6674 34.25 12.6212 34.6451 13.3245 35.3483C14.0278 36.0516 14.4229 37.0054 14.4229 38H11.9229ZM15.6729 33C15.6729 32.5075 15.7698 32.0199 15.9583 31.5649C16.1468 31.11 16.423 30.6966 16.7712 30.3483C17.1194 30.0001 17.5328 29.7239 17.9878 29.5354C18.4428 29.347 18.9304 29.25 19.4229 29.25C19.9153 29.25 20.4029 29.347 20.8579 29.5354C21.3129 29.7239 21.7263 30.0001 22.0745 30.3483C22.4227 30.6966 22.6989 31.11 22.8874 31.5649C23.0759 32.0199 23.1729 32.5075 23.1729 33C23.1729 33.9946 22.7778 34.9484 22.0745 35.6516C21.3712 36.3549 20.4174 36.75 19.4229 36.75C18.4283 36.75 17.4745 36.3549 16.7712 35.6516C16.0679 34.9484 15.6729 33.9946 15.6729 33Z" fill="#446E8A" stroke="#446E8A" stroke-width="0.333333"/>
</svg>
